<mxfile host="Electron" modified="2024-04-15T22:15:15.394Z" agent="Mozilla/5.0 (Windows NT 10.0; Win64; x64) AppleWebKit/537.36 (KHTML, like Gecko) draw.io/24.1.0 Chrome/120.0.6099.109 Electron/28.1.0 Safari/537.36" etag="nzZ0rW0TbwPkfipMD729" version="24.1.0" type="device">
  <diagram name="Page-1" id="_J1bbqd90y0wQAABSiBq">
    <mxGraphModel dx="792" dy="827" grid="1" gridSize="10" guides="1" tooltips="1" connect="1" arrows="1" fold="1" page="1" pageScale="1" pageWidth="827" pageHeight="1169" math="0" shadow="0">
      <root>
        <mxCell id="0" />
        <mxCell id="1" parent="0" />
        <mxCell id="qTR-VSw9mJNtQj4EtHC8-4" style="edgeStyle=orthogonalEdgeStyle;rounded=0;orthogonalLoop=1;jettySize=auto;html=1;exitX=0.5;exitY=1;exitDx=0;exitDy=0;entryX=0.5;entryY=0;entryDx=0;entryDy=0;" edge="1" parent="1" source="qTR-VSw9mJNtQj4EtHC8-1" target="qTR-VSw9mJNtQj4EtHC8-2">
          <mxGeometry relative="1" as="geometry" />
        </mxCell>
        <mxCell id="qTR-VSw9mJNtQj4EtHC8-1" value="Start" style="ellipse;whiteSpace=wrap;html=1;" vertex="1" parent="1">
          <mxGeometry x="280" y="40" width="120" height="50" as="geometry" />
        </mxCell>
        <mxCell id="qTR-VSw9mJNtQj4EtHC8-5" style="edgeStyle=orthogonalEdgeStyle;rounded=0;orthogonalLoop=1;jettySize=auto;html=1;exitX=0.5;exitY=1;exitDx=0;exitDy=0;" edge="1" parent="1" source="qTR-VSw9mJNtQj4EtHC8-2" target="qTR-VSw9mJNtQj4EtHC8-3">
          <mxGeometry relative="1" as="geometry" />
        </mxCell>
        <mxCell id="qTR-VSw9mJNtQj4EtHC8-2" value="Set CS == 53" style="rounded=0;whiteSpace=wrap;html=1;" vertex="1" parent="1">
          <mxGeometry x="280" y="120" width="120" height="40" as="geometry" />
        </mxCell>
        <mxCell id="qTR-VSw9mJNtQj4EtHC8-16" style="edgeStyle=orthogonalEdgeStyle;rounded=0;orthogonalLoop=1;jettySize=auto;html=1;exitX=0.5;exitY=1;exitDx=0;exitDy=0;entryX=0.5;entryY=0;entryDx=0;entryDy=0;" edge="1" parent="1" source="qTR-VSw9mJNtQj4EtHC8-3" target="qTR-VSw9mJNtQj4EtHC8-15">
          <mxGeometry relative="1" as="geometry" />
        </mxCell>
        <mxCell id="qTR-VSw9mJNtQj4EtHC8-3" value="set &#39;canMSG&#39; data structure" style="rounded=0;whiteSpace=wrap;html=1;" vertex="1" parent="1">
          <mxGeometry x="280" y="180" width="120" height="40" as="geometry" />
        </mxCell>
        <mxCell id="qTR-VSw9mJNtQj4EtHC8-12" style="edgeStyle=orthogonalEdgeStyle;rounded=0;orthogonalLoop=1;jettySize=auto;html=1;exitX=0.5;exitY=1;exitDx=0;exitDy=0;" edge="1" parent="1" source="qTR-VSw9mJNtQj4EtHC8-6" target="qTR-VSw9mJNtQj4EtHC8-7">
          <mxGeometry relative="1" as="geometry" />
        </mxCell>
        <mxCell id="qTR-VSw9mJNtQj4EtHC8-6" value="Issue MCP2515.reset command" style="rounded=0;whiteSpace=wrap;html=1;" vertex="1" parent="1">
          <mxGeometry x="280" y="300" width="120" height="40" as="geometry" />
        </mxCell>
        <mxCell id="qTR-VSw9mJNtQj4EtHC8-13" style="edgeStyle=orthogonalEdgeStyle;rounded=0;orthogonalLoop=1;jettySize=auto;html=1;exitX=0.5;exitY=1;exitDx=0;exitDy=0;entryX=0.5;entryY=0;entryDx=0;entryDy=0;" edge="1" parent="1" source="qTR-VSw9mJNtQj4EtHC8-7" target="qTR-VSw9mJNtQj4EtHC8-9">
          <mxGeometry relative="1" as="geometry" />
        </mxCell>
        <mxCell id="qTR-VSw9mJNtQj4EtHC8-7" value="Set bitrate as 500KBPS" style="rounded=0;whiteSpace=wrap;html=1;" vertex="1" parent="1">
          <mxGeometry x="280" y="360" width="120" height="40" as="geometry" />
        </mxCell>
        <mxCell id="qTR-VSw9mJNtQj4EtHC8-14" style="edgeStyle=orthogonalEdgeStyle;rounded=0;orthogonalLoop=1;jettySize=auto;html=1;exitX=0.5;exitY=1;exitDx=0;exitDy=0;entryX=0.5;entryY=0;entryDx=0;entryDy=0;" edge="1" parent="1" source="qTR-VSw9mJNtQj4EtHC8-9" target="qTR-VSw9mJNtQj4EtHC8-10">
          <mxGeometry relative="1" as="geometry" />
        </mxCell>
        <mxCell id="qTR-VSw9mJNtQj4EtHC8-9" value="Define 8MHz as Cryptal Oscilator" style="rounded=0;whiteSpace=wrap;html=1;" vertex="1" parent="1">
          <mxGeometry x="280" y="420" width="120" height="40" as="geometry" />
        </mxCell>
        <mxCell id="qTR-VSw9mJNtQj4EtHC8-10" value="Main Loop" style="shape=process;whiteSpace=wrap;html=1;backgroundOutline=1;" vertex="1" parent="1">
          <mxGeometry x="280" y="480" width="120" height="40" as="geometry" />
        </mxCell>
        <mxCell id="qTR-VSw9mJNtQj4EtHC8-17" style="edgeStyle=orthogonalEdgeStyle;rounded=0;orthogonalLoop=1;jettySize=auto;html=1;exitX=0.5;exitY=1;exitDx=0;exitDy=0;entryX=0.5;entryY=0;entryDx=0;entryDy=0;" edge="1" parent="1" source="qTR-VSw9mJNtQj4EtHC8-15" target="qTR-VSw9mJNtQj4EtHC8-6">
          <mxGeometry relative="1" as="geometry" />
        </mxCell>
        <mxCell id="qTR-VSw9mJNtQj4EtHC8-15" value="SPI.begin command" style="rounded=0;whiteSpace=wrap;html=1;" vertex="1" parent="1">
          <mxGeometry x="280" y="240" width="120" height="40" as="geometry" />
        </mxCell>
      </root>
    </mxGraphModel>
  </diagram>
</mxfile>
